<?xml version="1.0" encoding="UTF-8"?>
<!DOCTYPE svg PUBLIC "-//W3C//DTD SVG 1.1//EN" "http://www.w3.org/Graphics/SVG/1.1/DTD/svg11.dtd">
<svg xmlns="http://www.w3.org/2000/svg" version="1.1" width="155px" height="24px" style="shape-rendering:geometricPrecision; text-rendering:geometricPrecision; image-rendering:optimizeQuality; fill-rule:evenodd; clip-rule:evenodd" xmlns:xlink="http://www.w3.org/1999/xlink">
<g><path style="opacity:0.599" fill="#000000" d="M 3.5,3.5 C 5.04814,3.82124 5.71481,4.82124 5.5,6.5C 2.75236,6.59829 2.0857,5.59829 3.5,3.5 Z"/></g>
<g><path style="opacity:0.992" fill="#000000" d="M 21.5,3.5 C 22.8117,5.74317 23.4783,8.40984 23.5,11.5C 23.1667,14.1667 22.8333,16.8333 22.5,19.5C 21.5052,14.2079 21.1718,8.8746 21.5,3.5 Z"/></g>
<g><path style="opacity:0.655" fill="#000000" d="M 11.5,4.5 C 14.1667,4.5 16.8333,4.5 19.5,4.5C 19.5,5.5 19.5,6.5 19.5,7.5C 14.392,5.26334 11.392,6.93001 10.5,12.5C 11.8774,17.2973 14.8774,18.6306 19.5,16.5C 19.5,17.5 19.5,18.5 19.5,19.5C 8.92372,20.9703 5.42372,16.637 9,6.5C 9.9947,5.93406 10.828,5.26739 11.5,4.5 Z"/></g>
<g><path style="opacity:0.686" fill="#000000" d="M 51.5,4.5 C 58.3393,2.60744 62.006,5.10744 62.5,12C 61.6071,19.1587 57.6071,21.4921 50.5,19C 50,18.5 49.5,18 49,17.5C 48.3333,14.1667 48.3333,10.8333 49,7.5C 49.6979,6.30943 50.5313,5.30943 51.5,4.5 Z M 53.5,6.5 C 59.0388,7.23861 60.7054,10.2386 58.5,15.5C 54.5468,18.5131 51.8801,17.5131 50.5,12.5C 51.1286,10.2592 52.1286,8.25915 53.5,6.5 Z"/></g>
<g><path style="opacity:0.702" fill="#000000" d="M 65.5,4.5 C 67.8333,4.5 70.1667,4.5 72.5,4.5C 72.5777,7.48669 71.411,8.15336 69,6.5C 67.9412,6.63008 67.1079,7.13008 66.5,8C 68.4053,9.86997 70.5719,11.37 73,12.5C 74.3624,17.1372 72.6957,19.4705 68,19.5C 66.0271,19.6906 64.5271,19.024 63.5,17.5C 64.9223,16.4528 66.4223,16.4528 68,17.5C 69.2798,17.3865 70.1131,16.7199 70.5,15.5C 69.4206,13.457 67.754,12.1237 65.5,11.5C 64.2857,9.14135 64.2857,6.80801 65.5,4.5 Z"/></g>
<g><path style="opacity:0.753" fill="#000000" d="M 105.5,23.5 C 104.833,23.5 104.167,23.5 103.5,23.5C 102.826,0.909295 103.493,0.909295 105.5,23.5 Z"/></g>
<g><path style="opacity:0.645" fill="#000000" d="M 2.5,8.5 C 3.5,8.5 4.5,8.5 5.5,8.5C 5.5,12.1667 5.5,15.8333 5.5,19.5C 4.5,19.5 3.5,19.5 2.5,19.5C 2.5,15.8333 2.5,12.1667 2.5,8.5 Z"/></g>
<g><path style="opacity:0.66" fill="#000000" d="M 28.5,8.5 C 36.9351,7.86389 39.2684,11.3639 35.5,19C 32.5706,19.7772 29.7372,19.6105 27,18.5C 24.8568,14.7651 25.3568,11.4317 28.5,8.5 Z M 30.5,10.5 C 35.289,12.1998 35.6224,14.5332 31.5,17.5C 27.9667,15.5798 27.6334,13.2465 30.5,10.5 Z"/></g>
<g><path style="opacity:0.642" fill="#000000" d="M 39.5,8.5 C 41.924,8.19244 44.2573,8.52577 46.5,9.5C 44.8333,10.1667 43.1667,10.8333 41.5,11.5C 45.8042,12.5969 47.1376,15.0969 45.5,19C 43.0982,19.8141 40.7649,19.6474 38.5,18.5C 40.1667,17.8333 41.8333,17.1667 43.5,16.5C 39.4262,15.0212 38.0928,12.3546 39.5,8.5 Z"/></g>
<g><path style="opacity:0.551" fill="#000000" d="M 84.5,11.5 C 86.604,11.2011 88.604,11.5344 90.5,12.5C 89.3112,13.4287 87.9778,13.762 86.5,13.5C 86.5,16.5 86.5,19.5 86.5,22.5C 85.5,22.5 84.5,22.5 83.5,22.5C 83.244,18.7307 83.5773,15.0641 84.5,11.5 Z"/></g>
<g><path style="opacity:0.603" fill="#000000" d="M 98.5,23.5 C 97.1667,23.5 95.8333,23.5 94.5,23.5C 90.0752,20.6264 89.4085,16.9597 92.5,12.5C 98.241,10.2316 100.908,12.2316 100.5,18.5C 92.0347,18.63 91.7014,19.63 99.5,21.5C 99.1373,22.1835 98.8039,22.8501 98.5,23.5 Z M 94.5,13.5 C 95.9953,13.4148 96.9953,14.0815 97.5,15.5C 96.1667,16.8333 94.8333,16.8333 93.5,15.5C 93.8627,14.8165 94.1961,14.1499 94.5,13.5 Z"/></g>
<g><path style="opacity:0.604" fill="#000000" d="M 114.5,23.5 C 113.167,23.5 111.833,23.5 110.5,23.5C 106.075,20.6264 105.409,16.9597 108.5,12.5C 114.241,10.2316 116.908,12.2316 116.5,18.5C 108.035,18.63 107.701,19.63 115.5,21.5C 115.137,22.1835 114.804,22.8501 114.5,23.5 Z M 110.5,13.5 C 111.995,13.4148 112.995,14.0815 113.5,15.5C 112.167,16.8333 110.833,16.8333 109.5,15.5C 109.863,14.8165 110.196,14.1499 110.5,13.5 Z"/></g>
<g><path style="opacity:0.617" fill="#000000" d="M 124.5,23.5 C 122.833,23.5 121.167,23.5 119.5,23.5C 116.1,18.6667 117.433,15.8334 123.5,15C 121.941,14.0201 120.274,13.1867 118.5,12.5C 124.236,10.2256 126.902,12.2256 126.5,18.5C 126.276,20.4547 125.609,22.1213 124.5,23.5 Z M 121.5,17.5 C 122.586,17.62 123.253,18.2867 123.5,19.5C 122.515,21.7515 121.182,21.7515 119.5,19.5C 120.243,18.8182 120.909,18.1515 121.5,17.5 Z"/></g>
<g><path style="opacity:0.612" fill="#000000" d="M 133.5,23.5 C 131.833,23.5 130.167,23.5 128.5,23.5C 127.359,20.8071 128.192,20.1404 131,21.5C 131.692,20.9747 132.192,20.3081 132.5,19.5C 131.086,18.376 129.586,17.376 128,16.5C 127.828,12.1939 129.994,10.5272 134.5,11.5C 134.649,12.552 134.483,13.552 134,14.5C 132.817,13.269 131.651,13.269 130.5,14.5C 132.626,15.9008 134.293,17.7341 135.5,20C 135.022,21.3026 134.355,22.4693 133.5,23.5 Z"/></g>
<g><path style="opacity:0.628" fill="#000000" d="M 143.5,23.5 C 142.167,23.5 140.833,23.5 139.5,23.5C 136.697,20.7964 135.863,17.4631 137,13.5C 141.792,10.1935 144.959,11.3601 146.5,17C 144.299,18.0432 141.966,18.8765 139.5,19.5C 140.242,20.2868 141.075,20.9535 142,21.5C 143.183,20.269 144.349,20.269 145.5,21.5C 144.757,22.1818 144.091,22.8485 143.5,23.5 Z M 140.5,13.5 C 141.995,13.4148 142.995,14.0815 143.5,15.5C 141.926,16.6309 140.259,16.7975 138.5,16C 139.381,15.2917 140.047,14.4584 140.5,13.5 Z"/></g>
<g><path style="opacity:0.629" fill="#000000" d="M 154.5,11.5 C 154.5,12.5 154.5,13.5 154.5,14.5C 147.877,14.1723 147.877,15.1723 154.5,17.5C 154.5,19.1667 154.5,20.8333 154.5,22.5C 153.508,22.3284 152.842,22.6618 152.5,23.5C 151.167,23.5 149.833,23.5 148.5,23.5C 147.131,20.8688 147.798,20.2022 150.5,21.5C 151.308,21.1924 151.975,20.6924 152.5,20C 151.335,18.9164 150.002,18.0831 148.5,17.5C 146.64,12.0738 148.64,10.0738 154.5,11.5 Z"/></g>
</svg>
